# xmcd
#
# Track frame offsets: 
#        150
#        13722
#        25897
#        37917
#        49415
#        63690
#        77280
#        90082
#        101502
#        112415
#        124340
#        137055
#        151090
#        163027
#        175982
#        188587
#        199357
#        211882
#        223987
#        237302
#        249115
#
# Disc length: 3483 seconds
#
# Revision: 0
# Processed by: cddbd v1.5.1PL2 Copyright (c) Steve Scherf et al.
# Submitted via: ExactAudioCopy v0.95a5
#
DISCID=200d9915
DTITLE=Various Artist - Stompin' at the Savoy: Red Hot Blues 1944-1961 
DYEAR=2004
DGENRE=R&B
TTITLE0=Cornbread -  Hal Singer Sextet
TTITLE1=My Fault - Brownie McGhee 
TTITLE2=Fat Stuff Boogie - Beale Street Gang 
TTITLE3=Red Hot Blues - T.J. Fowler And His Rockin' Jump Band 
TTITLE4=The Huckle-Buck - Paul Williams and His Hucklebuckers 
TTITLE5=I'll Always Be In Love With You - The X-rays 
TTITLE6=Deacon's Hop - Deacon McNeely and His Blue Jays 
TTITLE7=Rickey's Blues - The Ravens 
TTITLE8=Sure Like To Run - King Carl 
TTITLE9=Cheatin' Women - Kansas City Jimmy 
TTITLE10=Double Crossing Blues - Johnny Otis Quintet 
TTITLE11=If It's So Baby - The Robins 
TTITLE12=Cupid's Boogie - Little Esther and Mel Walker 
TTITLE13=Rockin' Blues - Johnny Otis Orchestra 
TTITLE14=Straighten Him Out - Marilyn Scott 
TTITLE15=I Will Wait - The Four Buddies 
TTITLE16=Helen's Advice - Helen Humes 
TTITLE17=Atlanta Boogie - Tommy Brown And His Orchestra 
TTITLE18=Stacked Deck - Billy Wright 
TTITLE19=All Nite Long - Johnny Otis Orchestra 
TTITLE20=I Want To Rock - Miss Sharecropper 
EXTD=
EXTT0=
EXTT1=
EXTT2=
EXTT3=
EXTT4=
EXTT5=
EXTT6=
EXTT7=
EXTT8=
EXTT9=
EXTT10=
EXTT11=
EXTT12=
EXTT13=
EXTT14=
EXTT15=
EXTT16=
EXTT17=
EXTT18=
EXTT19=
EXTT20=
PLAYORDER=
